<svg xmlns="http://www.w3.org/2000/svg" data-name="Layer 1" viewBox="0 0 80 80"><defs><clipPath id="a"><path fill="none" d="M63,35.13a23,23,0,0,0-46,0A4,4,0,0,0,14,39V57.28a8,8,0,0,0,6.49,7.86h0a103.25,103.25,0,0,0,39,0h0A8,8,0,0,0,66,57.28V39A4,4,0,0,0,63,35.13Z"/></clipPath></defs><g class="color000000 svgShape" clip-path="url(#a)"><polygon fill="#e4a76e" points="0 51.21 51.21 0 34.24 0 0 34.24 0 51.21" class="colord484f5 svgShape"/><rect width="104.65" height="12" x="-23.44" y="22.75" fill="#f6b273" class="colorc673f6 svgShape" transform="rotate(-45 28.89 28.753)"/><rect width="104.65" height="12" x="-16.03" y="30.25" fill="#f7aa63" class="colorb863f7 svgShape" transform="rotate(-45 36.294 36.247)"/><rect width="104.65" height="12" x="-8.62" y="37.75" fill="#f9a352" class="coloraa52f9 svgShape" transform="rotate(-45 43.705 43.757)"/><rect width="104.65" height="12" x="-1.21" y="45.25" fill="#fa9b42" class="color9c42fa svgShape" transform="rotate(-45 51.109 51.25)"/><rect width="104.65" height="12" x="6.2" y="52.75" fill="#fb9331" class="color8e31fb svgShape" transform="rotate(-45 58.524 58.748)"/><rect width="104.65" height="12" x="13.61" y="60.25" fill="#fc8b21" class="color7f21fc svgShape" transform="rotate(-45 65.928 66.242)"/></g><path fill="none" stroke="#422000" stroke-linejoin="round" stroke-width="4" d="M63,35.13a23,23,0,0,0-46,0" class="colorStroke280042 svgStroke"/><path fill="none" stroke="#422000" stroke-linecap="round" stroke-linejoin="round" stroke-width="4" d="M62,35H18a4,4,0,0,0-4,4V57.28a8,8,0,0,0,6.49,7.86h0a103.25,103.25,0,0,0,39,0h0A8,8,0,0,0,66,57.28V39A4,4,0,0,0,62,35Z" class="colorStroke280042 svgStroke"/><path fill="none" stroke="#422000" stroke-linecap="round" stroke-linejoin="round" stroke-width="4" d="M55.87,52.24h0a143.77,143.77,0,0,1-31.72,0h0A2.41,2.41,0,0,1,22,49.85V44.4A2.39,2.39,0,0,1,24.4,42H55.6A2.39,2.39,0,0,1,58,44.4v5.45A2.41,2.41,0,0,1,55.87,52.24Z" class="colorStroke280042 svgStroke"/></svg>